<svg width="24" height="24" viewBox="0 0 24 24" xmlns="http://www.w3.org/2000/svg"><path d="M9.99979 5.3418C9.74392 5.3418 9.48776 5.44122 9.29276 5.63672L3.63651 11.293C3.24551 11.684 3.24551 12.317 3.63651 12.707L9.29276 18.3633C9.68376 18.7543 10.3168 18.7543 10.7068 18.3633L10.7928 18.2773C11.1838 17.8863 11.1838 17.2533 10.7928 16.8633L6.92948 13H19.9998C20.5518 13 20.9998 12.552 20.9998 12C20.9998 11.448 20.5518 11 19.9998 11H6.92948L10.7928 7.13672C11.1838 6.74572 11.1838 6.11266 10.7928 5.72266L10.7068 5.63672C10.5113 5.44122 10.2557 5.3418 9.99979 5.3418Z" style="height: 100%;"></path></svg>
